<?xml version="1.0" encoding="iso-8859-1"?>
<!-- Generator: Adobe Illustrator 19.0.0, SVG Export Plug-In . SVG Version: 6.00 Build 0)  -->
<svg version="1.1" id="Capa_1" xmlns="http://www.w3.org/2000/svg" xmlns:xlink="http://www.w3.org/1999/xlink" x="0px" y="0px"
	 viewBox="0 0 512.002 512.002" style="enable-background:new 0 0 512.002 512.002;" xml:space="preserve">
<g>
	<g>
		<circle style="fill:#E6E7E8;" cx="256" cy="256.001" r="256"/>
		<path style="fill:#E6E7E8;" d="M403.509,465.126c-43.077,30.628-94.654,47.018-147.509,46.874
			c-25.13,0.058-50.127-3.662-74.152-11.034c-3.972-1.059-8.033-2.472-11.917-3.884c-0.75-0.256-1.487-0.551-2.207-0.883v-43.079
			c2.328-0.03,4.586-0.804,6.444-2.207l74.063-55.526c2.253-1.697,3.77-4.193,4.237-6.974h127.117
			c-0.456,1.83-0.425,3.747,0.088,5.561l0.353,1.148l18.097,63.47C398.924,461.43,400.878,463.8,403.509,465.126z"/>
		<path style="fill:#E6E7E8;" d="M512,256.001c0.049,12.443-0.896,24.871-2.825,37.164c-2.076-2.421-5.109-3.809-8.298-3.796
			h-60.204c-0.306-0.046-0.618,0.016-0.883,0.177c-2.502,0.11-4.882,1.112-6.709,2.825l-58.174-116.348
			c2.869-1.579,4.925-4.31,5.65-7.503l18.273-82.097c0.734-3.403-0.145-6.955-2.383-9.622l31.338-10.505
			c2.207,2.03,4.326,4.061,6.444,6.091c3.796,3.531,7.327,7.238,10.77,11.122C488.209,130.547,512.129,192.128,512,256.001
			L512,256.001z"/>
	</g>
	<path style="fill:#2C2F38;" d="M427.785,66.296l-31.338,10.505c-0.974-1.147-2.177-2.079-3.531-2.737l-76.27-38.223
		c-2.394-1.135-5.104-1.416-7.68-0.794V5.562c2.825,0.53,5.561,1.148,8.21,1.854C358.391,17.479,396.422,37.724,427.785,66.296
		L427.785,66.296z"/>
	<g>
		<path style="fill:#E6E7E8;" d="M308.966,5.562v29.484c-0.794,0.171-1.565,0.438-2.295,0.794l-75.123,37.606
			c-2.48,1.26-4.4,3.401-5.385,6.003H109.815c0.649-2.139,0.587-4.431-0.177-6.532l-0.265-0.53L102.4,51.201
			c44.27-33.316,98.195-51.29,153.6-51.2c16.812-0.032,33.583,1.654,50.052,5.032L308.966,5.562z"/>
		<path style="fill:#E6E7E8;" d="M87.835,289.192l-9.269,83.509c-0.179,1.27-0.089,2.563,0.265,3.796L38.93,391.504
			c-1.501-2.472-3.001-4.943-4.502-7.503c-2.295-3.708-4.237-7.327-6.179-11.123C-3.146,311.769-8.619,240.595,13.065,175.405
			l34.163-6.797l3.708-0.794c0.639-0.094,1.262-0.272,1.854-0.53l0.177,0.441l38.223,114.67
			C89.277,284.174,88.083,286.592,87.835,289.192z"/>
	</g>
	<path style="fill:#ECF0F1;" d="M261.738,167.372l-60.116,124.91c-1.862-1.961-4.37-3.184-7.062-3.443l-94.543-9.446
		c-3.237-0.316-6.454,0.778-8.828,3.001l-38.223-114.67l-0.177-0.441c1.791-0.663,3.354-1.828,4.502-3.354
		c0.365-0.288,0.665-0.649,0.883-1.059l49.699-79.36l0.618-1.148c0.617-0.881,1.066-1.869,1.324-2.913h116.348
		c-0.971,2.529-0.971,5.328,0,7.857l27.366,73.092C254.859,163.997,257.971,166.641,261.738,167.372L261.738,167.372z"/>
	<g>
		<path style="fill:#2C2F38;" d="M167.724,453.121v43.079c-53.403-19.563-98.736-56.413-128.794-104.695l39.901-15.007
			c0.472,2.244,1.685,4.265,3.443,5.738l77.859,68.149C162.242,452.196,164.944,453.17,167.724,453.121L167.724,453.121z"/>
		<path style="fill:#2C2F38;" d="M109.815,79.449c-0.258,1.044-0.707,2.032-1.324,2.913l-0.618,1.148l-49.699,79.36
			c-0.217,0.411-0.518,0.772-0.883,1.059c-1.148,1.527-2.711,2.691-4.502,3.354c-0.592,0.257-1.215,0.435-1.854,0.53l-3.708,0.794
			l-34.163,6.797C29.464,125.854,60.639,82.51,102.4,51.201l6.974,21.186l0.265,0.53C110.402,75.018,110.464,77.31,109.815,79.449z"
			/>
	</g>
	<g>
		<path style="fill:#D1D4D1;" d="M398.83,86.423l-18.273,82.097c-0.724,3.194-2.781,5.925-5.65,7.503
			c-1.923,0.92-4.054,1.315-6.179,1.148l-105.754-9.622c-0.417-0.015-0.831-0.075-1.236-0.177c-3.767-0.731-6.88-3.375-8.21-6.974
			l-27.366-73.092c-0.971-2.529-0.971-5.328,0-7.857c0.985-2.602,2.905-4.742,5.385-6.003l75.123-37.606
			c0.73-0.356,1.501-0.623,2.296-0.794c2.576-0.621,5.286-0.341,7.68,0.794l76.27,38.223c1.354,0.657,2.557,1.589,3.531,2.737
			C398.685,79.468,399.565,83.019,398.83,86.423L398.83,86.423z"/>
		<path style="fill:#D1D4D1;" d="M252.469,388.414c-0.468,2.781-1.984,5.277-4.237,6.974l-74.063,55.526
			c-1.858,1.403-4.116,2.177-6.444,2.207c-2.78,0.049-5.482-0.925-7.592-2.737l-77.859-68.149c-1.758-1.473-2.97-3.494-3.443-5.738
			c-0.354-1.233-0.444-2.526-0.265-3.796l9.269-83.509c0.249-2.6,1.442-5.018,3.354-6.797c2.374-2.223,5.59-3.317,8.828-3.001
			l94.543,9.446c2.692,0.259,5.2,1.482,7.062,3.443c0.607,0.677,1.14,1.417,1.589,2.207l48.11,86.599
			C252.519,383.331,252.923,385.913,252.469,388.414z"/>
	</g>
	<path style="fill:#ECF0F1;" d="M509.175,293.165c-10.039,69.426-48.267,131.637-105.666,171.961
		c-2.631-1.327-4.585-3.697-5.385-6.532l-18.097-63.47l-0.353-1.148c-0.514-1.814-0.544-3.732-0.088-5.561
		c0.221-0.986,0.577-1.937,1.059-2.825l0.883-1.589l48.905-88.188l0.441-0.706c0.586-1.023,1.331-1.947,2.207-2.737
		c1.827-1.712,4.207-2.714,6.709-2.825c0.265-0.16,0.577-0.223,0.883-0.177h60.204C504.066,289.356,507.1,290.744,509.175,293.165
		L509.175,293.165z"/>
	<path style="fill:#2C2F38;" d="M433.081,292.37c-0.876,0.79-1.621,1.713-2.207,2.737l-0.441,0.706l-48.905,88.188l-0.883,1.589
		c-0.482,0.888-0.838,1.839-1.059,2.825H252.469c0.454-2.502,0.05-5.084-1.148-7.327l-48.11-86.599
		c-0.449-0.79-0.982-1.53-1.589-2.207l60.116-124.91c0.405,0.102,0.819,0.161,1.236,0.177l105.754,9.622
		c2.125,0.168,4.256-0.228,6.179-1.148L433.081,292.37z"/>
</g>
<g>
</g>
<g>
</g>
<g>
</g>
<g>
</g>
<g>
</g>
<g>
</g>
<g>
</g>
<g>
</g>
<g>
</g>
<g>
</g>
<g>
</g>
<g>
</g>
<g>
</g>
<g>
</g>
<g>
</g>
</svg>
